<svg width="22" height="22" viewBox="0 0 22 22" fill="none" xmlns="http://www.w3.org/2000/svg">
    <path d="M19.4197 1.0166C19.7595 0.999029 20.1264 0.980212 20.4334 1.04687C20.606 1.08437 20.7204 1.1467 20.8191 1.29394C20.8827 1.63166 20.9389 1.96596 20.9519 2.30957C20.9798 3.03795 20.9728 3.77164 20.9656 4.50391C20.9624 4.83602 20.9598 5.16814 20.9598 5.49902L20.9588 11.8076C20.959 12.0147 20.9659 12.3634 20.9734 12.7881C20.9998 14.2747 21.0426 16.6923 20.9051 17.2246C20.8065 17.6062 20.6055 17.7816 20.2654 17.9766C19.9617 18.0141 19.6448 18.0216 19.3309 18.0283C19.1665 18.0319 19.0024 18.0351 18.8416 18.043C17.3275 18.1178 15.7284 18.2683 14.3377 18.8936C13.9654 19.061 13.5916 19.2578 13.2644 19.5C13.0968 19.6241 12.9094 19.7966 12.7098 19.9805C12.2116 20.4393 11.6356 20.9696 11.0926 20.999C10.4669 21.0324 9.87342 20.5118 9.32597 20.0312C9.06539 19.8026 8.81522 19.5829 8.57695 19.4365C7.99921 19.0817 7.34595 18.8089 6.69804 18.6025C5.62926 18.2625 4.49697 18.0883 3.37577 18.0234C3.20664 18.0135 3.03238 18.0141 2.85722 18.0146C2.53184 18.0157 2.20216 18.0161 1.89531 17.9502C1.62794 17.8924 1.45571 17.7601 1.25468 17.5869C1.10764 17.2468 1.06184 16.8265 1.04374 16.46C1.01134 15.8044 1.01966 15.1413 1.02812 14.4805C1.0319 14.1871 1.03575 13.8941 1.03593 13.6025L1.03984 8.02246L1.03495 3.80078C1.03484 3.6165 1.02767 3.4161 1.01933 3.20898C0.996845 2.64802 0.971971 2.03689 1.09745 1.55859C1.16643 1.29579 1.32248 1.17945 1.54863 1.03906C4.03662 0.882146 6.75416 1.38514 8.94023 2.56836C9.66636 2.96136 10.3211 3.44257 10.9822 3.92871C11.3539 3.65908 11.7283 3.38926 12.1111 3.13476C14.1691 1.76664 16.62 1.09046 19.1023 1.03027C19.2035 1.02781 19.3102 1.02226 19.4197 1.0166ZM19.1336 2.91211C18.8322 2.91453 18.513 2.89602 18.2146 2.93457C16.1727 3.11417 13.5535 3.8406 12.1668 5.42285C12.108 5.49052 12.0506 5.56 11.9959 5.63086L11.993 18.0557C12.2197 17.8953 12.4443 17.7298 12.6746 17.5742C14.5824 16.4655 16.9691 16.2751 19.1434 16.123C19.1435 11.722 19.2036 7.31229 19.1336 2.91211ZM2.86113 2.91504C2.81434 4.75325 2.82488 6.59833 2.83476 8.44043C2.83884 9.1959 2.84245 9.95179 2.84257 10.7061C2.84269 11.2601 2.8352 11.8179 2.82792 12.377V12.3818C2.81189 13.6193 2.79586 14.8635 2.85917 16.0869C5.37176 16.2974 7.89512 16.5389 9.98808 18.0332C9.97571 13.9099 9.99905 9.78675 10.0584 5.66406C8.41325 3.97422 5.83868 2.97605 3.46464 2.91113C3.2637 2.90694 3.06195 2.90867 2.86113 2.91504Z" fill="#010101"/>
    <path d="M19.4197 1.0166L19.4276 1.16912L19.4276 1.16912L19.4197 1.0166ZM20.4334 1.04687L20.4658 0.897631L20.4658 0.897629L20.4334 1.04687ZM20.8191 1.29394L20.9692 1.2657L20.9634 1.23492L20.946 1.2089L20.8191 1.29394ZM20.9519 2.30957L20.7993 2.31538V2.3154L20.9519 2.30957ZM20.9656 4.50391L21.1183 4.5054V4.5054L20.9656 4.50391ZM20.9598 5.49902L21.1125 5.49905V5.49902H20.9598ZM20.9588 11.8076L20.8061 11.8076V11.8078L20.9588 11.8076ZM20.9734 12.7881L21.1261 12.7854V12.7854L20.9734 12.7881ZM20.9051 17.2246L20.7572 17.1864L20.7572 17.1864L20.9051 17.2246ZM20.2654 17.9766L20.2841 18.1281L20.3147 18.1244L20.3414 18.1091L20.2654 17.9766ZM19.3309 18.0283L19.3276 17.8756H19.3276L19.3309 18.0283ZM18.8416 18.043L18.8341 17.8904L18.8341 17.8904L18.8416 18.043ZM14.3377 18.8936L14.4003 19.0328H14.4003L14.3377 18.8936ZM13.2644 19.5L13.3553 19.6228L13.3553 19.6227L13.2644 19.5ZM12.7098 19.9805L12.6063 19.8681L12.6063 19.8681L12.7098 19.9805ZM11.0926 20.999L11.1007 21.1515L11.1008 21.1515L11.0926 20.999ZM9.32597 20.0312L9.42672 19.9165L9.42671 19.9165L9.32597 20.0312ZM8.57695 19.4365L8.49701 19.5667H8.49701L8.57695 19.4365ZM6.69804 18.6025L6.74438 18.457L6.74435 18.457L6.69804 18.6025ZM3.37577 18.0234L3.36685 18.1759L3.36695 18.1759L3.37577 18.0234ZM2.85722 18.0146L2.85672 17.8619H2.85672L2.85722 18.0146ZM1.89531 17.9502L1.86303 18.0995L1.86324 18.0995L1.89531 17.9502ZM1.25468 17.5869L1.1145 17.6475L1.12842 17.6797L1.15499 17.7026L1.25468 17.5869ZM1.04374 16.46L1.19628 16.4524L1.19628 16.4524L1.04374 16.46ZM1.02812 14.4805L0.875407 14.4785L0.875407 14.4785L1.02812 14.4805ZM1.03593 13.6025L0.883207 13.6024L0.883207 13.6024L1.03593 13.6025ZM1.03984 8.02246L1.19256 8.02257L1.19256 8.02228L1.03984 8.02246ZM1.03495 3.80078L0.882231 3.80088L0.882231 3.80096L1.03495 3.80078ZM1.01933 3.20898L0.866728 3.2151L0.866729 3.21513L1.01933 3.20898ZM1.09745 1.55859L0.949734 1.51982L0.94973 1.51984L1.09745 1.55859ZM1.54863 1.03906L1.53901 0.886641L1.5007 0.889058L1.46808 0.909307L1.54863 1.03906ZM8.94023 2.56836L8.86753 2.70267L8.86753 2.70267L8.94023 2.56836ZM10.9822 3.92871L10.8917 4.05175L10.9816 4.11783L11.0719 4.05233L10.9822 3.92871ZM12.1111 3.13476L12.1957 3.26195L12.1957 3.26195L12.1111 3.13476ZM19.1023 1.03027L19.106 1.18295L19.1061 1.18295L19.1023 1.03027ZM19.1336 2.91211L19.2863 2.90968L19.2839 2.75818L19.1324 2.75939L19.1336 2.91211ZM18.2146 2.93457L18.228 3.08683L18.2342 3.08603L18.2146 2.93457ZM12.1668 5.42285L12.0519 5.32219L12.0515 5.32271L12.1668 5.42285ZM11.9959 5.63086L11.875 5.53752L11.8432 5.57874L11.8432 5.63082L11.9959 5.63086ZM11.993 18.0557L11.8402 18.0556L11.8402 18.3508L12.0811 18.1804L11.993 18.0557ZM12.6746 17.5742L12.5977 17.4419L12.5891 17.4477L12.6746 17.5742ZM19.1434 16.123L19.154 16.2754L19.2961 16.2655L19.2961 16.123L19.1434 16.123ZM2.86113 2.91504L2.85628 2.76239L2.71212 2.76696L2.70845 2.91115L2.86113 2.91504ZM2.83476 8.44043L2.68204 8.44125V8.44125L2.83476 8.44043ZM2.84257 10.7061L2.68985 10.7061V10.7061L2.84257 10.7061ZM2.82792 12.377L2.6752 12.375V12.377H2.82792ZM2.82792 12.3818L2.98065 12.3838V12.3818H2.82792ZM2.85917 16.0869L2.70665 16.0948L2.71354 16.228L2.84643 16.2391L2.85917 16.0869ZM9.98808 18.0332L9.89934 18.1575L10.1417 18.3305L10.1408 18.0327L9.98808 18.0332ZM10.0584 5.66406L10.2111 5.66626L10.212 5.60292L10.1678 5.55753L10.0584 5.66406ZM3.46464 2.91113L3.46882 2.75846L3.46782 2.75844L3.46464 2.91113ZM19.4197 1.0166L19.4276 1.16912C19.7729 1.15126 20.1179 1.13464 20.401 1.19612L20.4334 1.04687L20.4658 0.897629C20.135 0.825789 19.7462 0.846792 19.4118 0.864081L19.4197 1.0166ZM20.4334 1.04687L20.401 1.19612C20.4774 1.21272 20.531 1.23275 20.5736 1.25913C20.615 1.28474 20.6532 1.32073 20.6923 1.37899L20.8191 1.29394L20.946 1.2089C20.8863 1.11991 20.818 1.05111 20.7343 0.999374C20.6519 0.948409 20.562 0.918527 20.4658 0.897631L20.4334 1.04687ZM20.8191 1.29394L20.669 1.32219C20.7324 1.65892 20.7867 1.98382 20.7993 2.31538L20.9519 2.30957L21.1046 2.30376C21.091 1.94811 21.033 1.60439 20.9692 1.2657L20.8191 1.29394ZM20.9519 2.30957L20.7993 2.3154C20.827 3.03952 20.8201 3.76955 20.8129 4.50241L20.9656 4.50391L21.1183 4.5054C21.1255 3.77373 21.1326 3.03638 21.1046 2.30373L20.9519 2.30957ZM20.9656 4.50391L20.8129 4.50241C20.8096 4.83467 20.807 5.16739 20.807 5.49902H20.9598H21.1125C21.1125 5.16889 21.1151 4.83736 21.1183 4.5054L20.9656 4.50391ZM20.9598 5.49902L20.807 5.499L20.8061 11.8076L20.9588 11.8076L21.1115 11.8076L21.1125 5.49905L20.9598 5.49902ZM20.9588 11.8076L20.8061 11.8078C20.8063 12.0166 20.8132 12.3672 20.8207 12.7908L20.9734 12.7881L21.1261 12.7854C21.1185 12.3596 21.1117 12.0129 21.1115 11.8074L20.9588 11.8076ZM20.9734 12.7881L20.8207 12.7908C20.8339 13.5344 20.8512 14.5088 20.848 15.3636C20.8464 15.7911 20.8397 16.1873 20.8249 16.5089C20.8099 16.8358 20.787 17.0711 20.7572 17.1864L20.9051 17.2246L21.0529 17.2628C21.0919 17.112 21.1152 16.8454 21.1301 16.5229C21.1451 16.1951 21.1519 15.794 21.1535 15.3648C21.1567 14.5061 21.1393 13.5283 21.1261 12.7854L20.9734 12.7881ZM20.9051 17.2246L20.7572 17.1864C20.7133 17.3565 20.649 17.4727 20.5626 17.568C20.4738 17.666 20.3552 17.7491 20.1895 17.8441L20.2654 17.9766L20.3414 18.1091C20.5157 18.0091 20.6676 17.907 20.7889 17.7732C20.9127 17.6366 20.9983 17.4744 21.0529 17.2628L20.9051 17.2246ZM20.2654 17.9766L20.2467 17.825C19.9519 17.8614 19.6427 17.8689 19.3276 17.8756L19.3309 18.0283L19.3341 18.181C19.6469 18.1743 19.9715 18.1668 20.2841 18.1281L20.2654 17.9766ZM19.3309 18.0283L19.3276 17.8756C19.1639 17.8792 18.9975 17.8824 18.8341 17.8904L18.8416 18.043L18.8491 18.1955C19.0073 18.1877 19.1691 18.1846 19.3341 18.181L19.3309 18.0283ZM18.8416 18.043L18.8341 17.8904C17.3191 17.9653 15.6943 18.1161 14.2751 18.7543L14.3377 18.8936L14.4003 19.0328C15.7625 18.4204 17.3359 18.2703 18.8491 18.1955L18.8416 18.043ZM14.3377 18.8936L14.2751 18.7543C13.8976 18.924 13.5129 19.126 13.1736 19.3773L13.2644 19.5L13.3553 19.6227C13.6703 19.3895 14.0332 19.1979 14.4003 19.0328L14.3377 18.8936ZM13.2644 19.5L13.1736 19.3772C12.9979 19.5073 12.804 19.6861 12.6063 19.8681L12.7098 19.9805L12.8132 20.0928C13.0149 19.9071 13.1956 19.741 13.3553 19.6228L13.2644 19.5ZM12.7098 19.9805L12.6063 19.8681C12.3557 20.099 12.0945 20.3391 11.8299 20.526C11.5631 20.7144 11.3123 20.8342 11.0843 20.8465L11.0926 20.999L11.1008 21.1515C11.4158 21.1344 11.7245 20.9743 12.0061 20.7755C12.2898 20.5752 12.5657 20.3208 12.8132 20.0928L12.7098 19.9805ZM11.0926 20.999L11.0844 20.8465C10.8168 20.8608 10.5442 20.757 10.2614 20.5787C9.97847 20.4002 9.70244 20.1585 9.42672 19.9165L9.32597 20.0312L9.22522 20.146C9.49695 20.3845 9.79137 20.6434 10.0985 20.837C10.4056 21.0308 10.7426 21.1706 11.1007 21.1515L11.0926 20.999ZM9.32597 20.0312L9.42671 19.9165C9.16917 19.6904 8.90852 19.4609 8.65688 19.3064L8.57695 19.4365L8.49701 19.5667C8.72191 19.7048 8.96162 19.9147 9.22523 20.146L9.32597 20.0312ZM8.57695 19.4365L8.65688 19.3064C8.06577 18.9433 7.40041 18.6659 6.74438 18.457L6.69804 18.6025L6.6517 18.7481C7.29149 18.9518 7.93265 19.22 8.49701 19.5667L8.57695 19.4365ZM6.69804 18.6025L6.74435 18.457C5.66058 18.1122 4.51518 17.9364 3.38459 17.871L3.37577 18.0234L3.36695 18.1759C4.47876 18.2402 5.59793 18.4128 6.65173 18.7481L6.69804 18.6025ZM3.37577 18.0234L3.3847 17.871C3.21004 17.8608 3.03102 17.8614 2.85672 17.8619L2.85722 18.0146L2.85772 18.1674C3.03375 18.1668 3.20323 18.1663 3.36685 18.1759L3.37577 18.0234ZM2.85722 18.0146L2.85672 17.8619C2.5283 17.863 2.21537 17.8627 1.92737 17.8009L1.89531 17.9502L1.86324 18.0995C2.18895 18.1695 2.53539 18.1684 2.85772 18.1674L2.85722 18.0146ZM1.89531 17.9502L1.92758 17.8009C1.69971 17.7517 1.55194 17.6415 1.35437 17.4712L1.25468 17.5869L1.15499 17.7026C1.35948 17.8788 1.55616 18.0331 1.86303 18.0995L1.89531 17.9502ZM1.25468 17.5869L1.39486 17.5263C1.25943 17.2131 1.21425 16.8163 1.19628 16.4524L1.04374 16.46L0.891205 16.4675C0.909436 16.8367 0.955855 17.2806 1.1145 17.6475L1.25468 17.5869ZM1.04374 16.46L1.19628 16.4524C1.16415 15.8024 1.17236 15.144 1.18083 14.4824L1.02812 14.4805L0.875407 14.4785C0.866958 15.1385 0.85853 15.8064 0.891206 16.4675L1.04374 16.46ZM1.02812 14.4805L1.18083 14.4824C1.18461 14.1893 1.18847 13.8953 1.18865 13.6026L1.03593 13.6025L0.883207 13.6024C0.88303 13.8929 0.879197 14.185 0.875407 14.4785L1.02812 14.4805ZM1.03593 13.6025L1.18865 13.6026L1.19256 8.02257L1.03984 8.02246L0.887113 8.02235L0.883207 13.6024L1.03593 13.6025ZM1.03984 8.02246L1.19256 8.02228L1.18768 3.8006L1.03495 3.80078L0.882231 3.80096L0.887113 8.02264L1.03984 8.02246ZM1.03495 3.80078L1.18768 3.80068C1.18756 3.61305 1.18027 3.40992 1.17193 3.20284L1.01933 3.20898L0.866729 3.21513C0.875071 3.42228 0.882114 3.61995 0.882231 3.80088L1.03495 3.80078ZM1.01933 3.20898L1.17193 3.20287C1.14916 2.63468 1.1267 2.04895 1.24518 1.59735L1.09745 1.55859L0.94973 1.51984C0.817241 2.02484 0.844534 2.66137 0.866728 3.2151L1.01933 3.20898ZM1.09745 1.55859L1.24517 1.59737C1.29833 1.39485 1.40903 1.30548 1.62917 1.16882L1.54863 1.03906L1.46808 0.909307C1.23593 1.05342 1.03454 1.19673 0.949734 1.51982L1.09745 1.55859ZM1.54863 1.03906L1.55824 1.19148C4.0216 1.03612 6.70993 1.53486 8.86753 2.70267L8.94023 2.56836L9.01292 2.43405C6.79838 1.23542 4.05163 0.728173 1.53901 0.886641L1.54863 1.03906ZM8.94023 2.56836L8.86753 2.70267C9.58288 3.08984 10.2293 3.56463 10.8917 4.05175L10.9822 3.92871L11.0727 3.80567C10.4129 3.32051 9.74984 2.83289 9.01292 2.43405L8.94023 2.56836ZM10.9822 3.92871L11.0719 4.05233C11.4436 3.78267 11.8157 3.51452 12.1957 3.26195L12.1111 3.13476L12.0266 3.00758C11.6409 3.264 11.2641 3.53549 10.8925 3.80509L10.9822 3.92871ZM12.1111 3.13476L12.1957 3.26195C14.2263 1.91195 16.6484 1.24254 19.106 1.18295L19.1023 1.03027L19.0986 0.877594C16.5917 0.938377 14.1118 1.62134 12.0266 3.00758L12.1111 3.13476ZM19.1023 1.03027L19.1061 1.18295C19.2097 1.18042 19.3186 1.17475 19.4276 1.16912L19.4197 1.0166L19.4118 0.864081C19.3019 0.869766 19.1973 0.87519 19.0986 0.877595L19.1023 1.03027ZM19.1336 2.91211L19.1324 2.75939C18.8452 2.76169 18.5056 2.74298 18.1951 2.78311L18.2146 2.93457L18.2342 3.08603C18.5205 3.04905 18.8191 3.06736 19.1348 3.06483L19.1336 2.91211ZM18.2146 2.93457L18.2013 2.78243C17.1692 2.87321 15.9902 3.10215 14.8919 3.50952C13.795 3.9164 12.768 4.50519 12.0519 5.32219L12.1668 5.42285L12.2816 5.52351C12.9523 4.75826 13.9283 4.19271 14.9981 3.79591C16.0666 3.3996 17.2182 3.17553 18.228 3.0867L18.2146 2.93457ZM12.1668 5.42285L12.0515 5.32271C11.9911 5.39225 11.9318 5.46401 11.875 5.53752L11.9959 5.63086L12.1168 5.7242C12.1694 5.656 12.225 5.58879 12.2821 5.52299L12.1668 5.42285ZM11.9959 5.63086L11.8432 5.63082L11.8402 18.0556L11.993 18.0557L12.1457 18.0557L12.1486 5.63089L11.9959 5.63086ZM11.993 18.0557L12.0811 18.1804C12.3112 18.0176 12.5315 17.8553 12.7601 17.7008L12.6746 17.5742L12.5891 17.4477C12.3572 17.6044 12.1281 17.7731 11.9048 17.931L11.993 18.0557ZM12.6746 17.5742L12.7513 17.7063C14.6233 16.6184 16.9732 16.4279 19.154 16.2754L19.1434 16.123L19.1327 15.9707C16.9649 16.1223 14.5414 16.3127 12.5979 17.4422L12.6746 17.5742ZM19.1434 16.123L19.2961 16.123C19.2962 11.7249 19.3564 7.31138 19.2863 2.90968L19.1336 2.91211L18.9809 2.91454C19.0509 7.3132 18.9907 11.7192 18.9906 16.123L19.1434 16.123ZM2.86113 2.91504L2.70845 2.91115C2.66159 4.75213 2.67216 6.5996 2.68204 8.44125L2.83476 8.44043L2.98748 8.43961C2.9776 6.59706 2.96708 4.75437 3.0138 2.91892L2.86113 2.91504ZM2.83476 8.44043L2.68204 8.44125C2.68612 9.1967 2.68973 9.95224 2.68985 10.7061L2.84257 10.7061L2.99529 10.706C2.99518 9.95133 2.99156 9.1951 2.98748 8.4396L2.83476 8.44043ZM2.84257 10.7061L2.68985 10.7061C2.68996 11.2589 2.68249 11.8156 2.67521 12.375L2.82792 12.377L2.98063 12.3789C2.9879 11.8201 2.99541 11.2613 2.99529 10.706L2.84257 10.7061ZM2.82792 12.377H2.6752V12.3818H2.82792H2.98065V12.377H2.82792ZM2.82792 12.3818L2.67521 12.3799C2.65919 13.6165 2.64305 14.8656 2.70665 16.0948L2.85917 16.0869L3.01169 16.079C2.94868 14.8614 2.96459 13.6222 2.98063 12.3838L2.82792 12.3818ZM2.85917 16.0869L2.84643 16.2391C5.36504 16.4501 7.84565 16.6912 9.89934 18.1575L9.98808 18.0332L10.0768 17.9089C7.9446 16.3865 5.37848 16.1447 2.87192 15.9347L2.85917 16.0869ZM9.98808 18.0332L10.1408 18.0327C10.1284 13.9103 10.1518 9.78806 10.2111 5.66626L10.0584 5.66406L9.90568 5.66186C9.84633 9.78544 9.82299 13.9095 9.83536 18.0337L9.98808 18.0332ZM10.0584 5.66406L10.1678 5.55753C8.49126 3.83542 5.87702 2.82432 3.46882 2.75847L3.46464 2.91113L3.46047 3.0638C5.80035 3.12779 8.33523 4.11302 9.94896 5.7706L10.0584 5.66406ZM3.46464 2.91113L3.46782 2.75844C3.2639 2.75419 3.05945 2.75595 2.85628 2.76239L2.86113 2.91504L2.86597 3.06768C3.06444 3.06139 3.2635 3.0597 3.46146 3.06382L3.46464 2.91113Z" fill="#010101"/>
</svg>


