<svg id="logo" width="84" height="36" viewBox="0 0 112 29" fill="none" xmlns="http://www.w3.org/2000/svg">
    <g clip-path="url(#clip0_11426_975)">
        <path d="M2.63215 15.0753C2.63107 15.1609 2.62999 15.2465 2.62891 15.3322C2.62992 15.2482 2.63107 15.1642 2.63215 15.0803V15.0753Z" fill="#FEFEFD"/>
        <path d="M20.4748 2.51693C20.8402 2.49751 21.2345 2.47743 21.5646 2.55111C21.7503 2.59255 21.8735 2.66084 21.9797 2.82358C22.048 3.19678 22.1091 3.56593 22.1232 3.94565C22.1532 4.75097 22.1456 5.56278 22.1379 6.3724C22.1344 6.73944 22.1301 7.10634 22.1301 7.47201V14.4456C22.1303 14.6746 22.1366 15.0601 22.1447 15.5296C22.1731 17.1727 22.2193 19.844 22.0715 20.433C21.9654 20.8551 21.7499 21.0494 21.384 21.265C21.0573 21.3065 20.7167 21.3142 20.3791 21.3216C20.2023 21.3255 20.0257 21.3295 19.8527 21.3382C18.2244 21.421 16.5046 21.5874 15.009 22.2787C14.6085 22.4637 14.2066 22.6817 13.8547 22.9496C13.6744 23.0868 13.4727 23.2776 13.258 23.4808C12.7224 23.9879 12.1035 24.5732 11.5197 24.6058C10.8467 24.6429 10.2082 24.0677 9.61933 23.5365C9.33912 23.2837 9.06989 23.041 8.81366 22.8792C8.19234 22.487 7.48995 22.1845 6.79316 21.9564C5.64371 21.5805 4.42572 21.3884 3.21991 21.3167C3.03797 21.3058 2.85072 21.3063 2.6623 21.307C2.31237 21.3082 1.95812 21.3085 1.62812 21.2357C1.34054 21.1718 1.15488 21.0258 0.938663 20.8343C0.7806 20.4585 0.731578 19.9943 0.712101 19.5892C0.677229 18.8644 0.686399 18.1304 0.695499 17.3997C0.69957 17.0757 0.703119 16.7521 0.703312 16.43L0.708194 10.2621L0.703312 5.59506C0.703184 5.39139 0.694701 5.16966 0.685734 4.94076C0.661559 4.32081 0.634868 3.64521 0.769718 3.11654C0.843878 2.82614 1.012 2.69744 1.25507 2.54233C3.93077 2.36887 6.85328 2.92482 9.20429 4.23275C9.98521 4.66719 10.6895 5.1983 11.4006 5.73568C11.8001 5.43774 12.2029 5.13995 12.6144 4.85873C14.8277 3.34639 17.4634 2.59909 20.133 2.53256C20.2419 2.52984 20.3569 2.5232 20.4748 2.51693ZM20.1672 4.61264C19.8431 4.61531 19.4998 4.59447 19.1789 4.63705C16.9828 4.8356 14.1653 5.63967 12.674 7.389C12.6109 7.46368 12.5501 7.54031 12.4914 7.6185L12.4875 21.3529C12.7313 21.1756 12.9732 20.9927 13.2209 20.8206C15.2725 19.5952 17.8387 19.3843 20.1769 19.2162C20.1771 14.3512 20.2425 9.47669 20.1672 4.61264ZM2.66718 4.61557C2.61685 6.64774 2.62726 8.6875 2.63788 10.724C2.64227 11.5591 2.64654 12.3941 2.64667 13.2279C2.6468 13.8404 2.63887 14.4574 2.63105 15.0755V15.0804C2.6138 16.4484 2.59714 17.8237 2.66523 19.1761C5.3673 19.4087 8.08045 19.6757 10.3312 21.3275C10.3179 16.7696 10.3436 12.2119 10.4074 7.65463C8.6381 5.78662 5.86883 4.68339 3.31562 4.61166C3.09951 4.60703 2.88315 4.60853 2.66718 4.61557Z" fill="#010101"/>
        <path d="M20.4748 2.51693L20.4921 2.84228L20.4921 2.84228L20.4748 2.51693ZM21.5646 2.55111L21.4937 2.8691L21.4937 2.8691L21.5646 2.55111ZM21.9797 2.82358L22.3002 2.7649L22.2884 2.70043L22.2525 2.64554L21.9797 2.82358ZM22.1232 3.94565L21.7976 3.95772L21.7977 3.95776L22.1232 3.94565ZM22.1379 6.3724L22.4637 6.37551L22.4637 6.3755L22.1379 6.3724ZM22.1301 14.4456L21.8043 14.4456L21.8043 14.446L22.1301 14.4456ZM22.1447 15.5296L22.4705 15.524L22.4705 15.524L22.1447 15.5296ZM22.0715 20.433L22.3875 20.5123L22.3875 20.5123L22.0715 20.433ZM21.384 21.265L21.425 21.5882L21.4916 21.5797L21.5494 21.5457L21.384 21.265ZM20.3791 21.3216L20.3719 20.9959L20.3719 20.9959L20.3791 21.3216ZM19.8527 21.3382L19.8363 21.0128L19.8362 21.0128L19.8527 21.3382ZM15.009 22.2787L15.1457 22.5744L15.1457 22.5744L15.009 22.2787ZM13.8547 22.9496L13.6574 22.6903L13.6574 22.6903L13.8547 22.9496ZM13.258 23.4808L13.034 23.2442L13.034 23.2442L13.258 23.4808ZM11.5197 24.6058L11.5376 24.9311L11.5379 24.9311L11.5197 24.6058ZM9.61933 23.5365L9.83758 23.2946L9.83756 23.2945L9.61933 23.5365ZM8.81366 22.8792L8.9876 22.6037L8.9876 22.6037L8.81366 22.8792ZM6.79316 21.9564L6.8945 21.6467L6.89443 21.6467L6.79316 21.9564ZM3.21991 21.3167L3.20035 21.642L3.20058 21.642L3.21991 21.3167ZM2.6623 21.307L2.6612 20.9812L2.66119 20.9812L2.6623 21.307ZM1.62812 21.2357L1.55745 21.5537L1.5579 21.5538L1.62812 21.2357ZM0.938663 20.8343L0.63834 20.9606L0.667104 21.029L0.722642 21.0782L0.938663 20.8343ZM0.712101 19.5892L1.03753 19.5736L1.03753 19.5735L0.712101 19.5892ZM0.695499 17.3997L0.369716 17.3957L0.369716 17.3957L0.695499 17.3997ZM0.703312 16.43L0.377503 16.4298L0.377503 16.4298L0.703312 16.43ZM0.708194 10.2621L1.034 10.2623L1.034 10.2617L0.708194 10.2621ZM0.703312 5.59506L0.377503 5.59526L0.377503 5.5954L0.703312 5.59506ZM0.685734 4.94076L0.360172 4.95346L0.360175 4.95352L0.685734 4.94076ZM0.769718 3.11654L0.45404 3.03593L0.454018 3.03602L0.769718 3.11654ZM1.25507 2.54233L1.23399 2.2172L1.15041 2.22262L1.0798 2.26767L1.25507 2.54233ZM9.20429 4.23275L9.04589 4.51747L9.0459 4.51747L9.20429 4.23275ZM11.4006 5.73568L11.2041 5.99561L11.3993 6.14309L11.5953 5.99686L11.4006 5.73568ZM12.6144 4.85873L12.4306 4.58973L12.4306 4.58973L12.6144 4.85873ZM20.133 2.53256L20.1411 2.85827L20.1411 2.85827L20.133 2.53256ZM20.1672 4.61264L20.4929 4.60759L20.4879 4.28417L20.1645 4.28684L20.1672 4.61264ZM19.1789 4.63705L19.2083 4.96182L19.2218 4.96003L19.1789 4.63705ZM12.674 7.389L12.4261 7.17763L12.4251 7.17874L12.674 7.389ZM12.4914 7.6185L12.2309 7.42279L12.1656 7.5097L12.1656 7.6184L12.4914 7.6185ZM12.4875 21.3529L12.1617 21.3528L12.1615 21.9926L12.6791 21.6164L12.4875 21.3529ZM13.2209 20.8206L13.0538 20.5409L13.0442 20.5467L13.035 20.553L13.2209 20.8206ZM20.1769 19.2162L20.2003 19.5411L20.5027 19.5194L20.5028 19.2162L20.1769 19.2162ZM2.66718 4.61557L2.65657 4.28993L2.34909 4.29995L2.34147 4.6075L2.66718 4.61557ZM2.63788 10.724L2.31208 10.7257L2.31208 10.7257L2.63788 10.724ZM2.64667 13.2279L2.32086 13.2279L2.32086 13.2279L2.64667 13.2279ZM2.63105 15.0755L2.30524 15.0714V15.0755H2.63105ZM2.63105 15.0804L2.95685 15.0845V15.0804H2.63105ZM2.66523 19.1761L2.33983 19.1925L2.35412 19.4763L2.63728 19.5007L2.66523 19.1761ZM10.3312 21.3275L10.1385 21.5901L10.6589 21.9721L10.657 21.3265L10.3312 21.3275ZM10.4074 7.65463L10.7332 7.65919L10.735 7.52675L10.644 7.43058L10.4074 7.65463ZM3.31562 4.61166L3.32477 4.28597L3.32259 4.28593L3.31562 4.61166ZM20.4748 2.51693L20.4921 2.84228C20.8689 2.82226 21.2155 2.80702 21.4937 2.8691L21.5646 2.55111L21.6356 2.23313C21.2535 2.14783 20.8116 2.17276 20.4575 2.19159L20.4748 2.51693ZM21.5646 2.55111L21.4937 2.8691C21.5652 2.88507 21.6031 2.90159 21.6277 2.91714C21.6497 2.93105 21.6752 2.9531 21.7068 3.00161L21.9797 2.82358L22.2525 2.64554C22.178 2.53132 22.0888 2.43786 21.9763 2.36658C21.8663 2.29694 21.7497 2.2586 21.6356 2.23313L21.5646 2.55111ZM21.9797 2.82358L21.6592 2.88225C21.7273 3.254 21.7845 3.60329 21.7976 3.95772L22.1232 3.94565L22.4488 3.93357C22.4338 3.52858 22.3688 3.13956 22.3002 2.7649L21.9797 2.82358ZM22.1232 3.94565L21.7977 3.95776C21.8273 4.75422 21.8198 5.55842 21.8121 6.3693L22.1379 6.3724L22.4637 6.3755C22.4714 5.56715 22.4791 4.74773 22.4488 3.93353L22.1232 3.94565ZM22.1379 6.3724L21.8121 6.3693C21.8086 6.73529 21.8043 7.10434 21.8043 7.47201H22.1301H22.4559C22.4559 7.10833 22.4602 6.74359 22.4637 6.37551L22.1379 6.3724ZM22.1301 7.47201H21.8043V14.4456H22.1301H22.4559V7.47201H22.1301ZM22.1301 14.4456L21.8043 14.446C21.8045 14.6782 21.8108 15.0668 21.819 15.5353L22.1447 15.5296L22.4705 15.524C22.4623 15.0534 22.4561 14.671 22.4559 14.4453L22.1301 14.4456ZM22.1447 15.5296L21.819 15.5353C21.8332 16.3575 21.8517 17.4326 21.8484 18.3754C21.8467 18.847 21.8395 19.2824 21.8238 19.6349C21.8076 19.9984 21.7832 20.2433 21.7555 20.3536L22.0715 20.433L22.3875 20.5123C22.4337 20.3282 22.459 20.0183 22.4748 19.6639C22.4911 19.2985 22.4983 18.853 22.5 18.3777C22.5034 17.4269 22.4847 16.3448 22.4705 15.524L22.1447 15.5296ZM22.0715 20.433L21.7555 20.3536C21.7132 20.5218 21.6544 20.6272 21.5806 20.7112C21.5019 20.8006 21.3918 20.8822 21.2186 20.9843L21.384 21.265L21.5494 21.5457C21.742 21.4322 21.9227 21.3088 22.0698 21.1416C22.2217 20.969 22.3237 20.7663 22.3875 20.5123L22.0715 20.433ZM21.384 21.265L21.3429 20.9418C21.036 20.9807 20.7126 20.9884 20.3719 20.9959L20.3791 21.3216L20.3863 21.6474C20.7209 21.64 21.0786 21.6322 21.425 21.5882L21.384 21.265ZM20.3791 21.3216L20.3719 20.9959C20.1958 20.9998 20.0146 21.0038 19.8363 21.0128L19.8527 21.3382L19.8691 21.6636C20.0367 21.6552 20.2088 21.6513 20.3863 21.6474L20.3791 21.3216ZM19.8527 21.3382L19.8362 21.0128C18.2057 21.0957 16.4299 21.263 14.8723 21.9829L15.009 22.2787L15.1457 22.5744C16.5793 21.9118 18.2431 21.7463 19.8693 21.6636L19.8527 21.3382ZM15.009 22.2787L14.8723 21.9829C14.4603 22.1733 14.0352 22.4028 13.6574 22.6903L13.8547 22.9496L14.052 23.2088C14.378 22.9607 14.7567 22.7542 15.1457 22.5744L15.009 22.2787ZM13.8547 22.9496L13.6574 22.6903C13.4601 22.8404 13.2446 23.0449 13.034 23.2442L13.258 23.4808L13.482 23.7174C13.7008 23.5103 13.8886 23.3332 14.052 23.2088L13.8547 22.9496ZM13.258 23.4808L13.034 23.2442C12.7629 23.5008 12.4899 23.7585 12.2156 23.9575C11.9363 24.1602 11.6984 24.2695 11.5015 24.2805L11.5197 24.6058L11.5379 24.9311C11.9248 24.9095 12.2883 24.7099 12.5983 24.4849C12.9132 24.2564 13.2174 23.9679 13.482 23.7174L13.258 23.4808ZM11.5197 24.6058L11.5018 24.2805C11.2645 24.2936 11.0067 24.1997 10.7151 24.0108C10.4235 23.822 10.1362 23.564 9.83758 23.2946L9.61933 23.5365L9.40107 23.7784C9.69125 24.0402 10.0176 24.3354 10.3608 24.5577C10.7039 24.78 11.102 24.9551 11.5376 24.9311L11.5197 24.6058ZM9.61933 23.5365L9.83756 23.2945C9.56369 23.0475 9.27232 22.7835 8.9876 22.6037L8.81366 22.8792L8.63972 23.1547C8.86745 23.2985 9.11456 23.5199 9.40109 23.7784L9.61933 23.5365ZM8.81366 22.8792L8.9876 22.6037C8.33776 22.1935 7.60932 21.8807 6.8945 21.6467L6.79316 21.9564L6.69181 22.266C7.37058 22.4882 8.04691 22.7805 8.63973 23.1547L8.81366 22.8792ZM6.79316 21.9564L6.89443 21.6467C5.71226 21.2601 4.46557 21.0644 3.23925 20.9915L3.21991 21.3167L3.20058 21.642C4.38587 21.7124 5.57516 21.9009 6.69188 22.2661L6.79316 21.9564ZM3.21991 21.3167L3.23947 20.9915C3.04547 20.9799 2.84783 20.9805 2.6612 20.9812L2.6623 21.307L2.6634 21.6328C2.85361 21.6321 3.03047 21.6317 3.20035 21.642L3.21991 21.3167ZM2.6623 21.307L2.66119 20.9812C2.30468 20.9824 1.9871 20.9813 1.69834 20.9175L1.62812 21.2357L1.5579 21.5538C1.92915 21.6358 2.32006 21.6339 2.6634 21.6328L2.6623 21.307ZM1.62812 21.2357L1.69878 20.9176C1.49687 20.8728 1.3637 20.7755 1.15468 20.5904L0.938663 20.8343L0.722642 21.0782C0.946057 21.2761 1.18421 21.4708 1.55745 21.5537L1.62812 21.2357ZM0.938663 20.8343L1.23899 20.708C1.10458 20.3885 1.05676 19.9734 1.03753 19.5736L0.712101 19.5892L0.386668 19.6048C0.406397 20.0152 0.456619 20.5286 0.63834 20.9606L0.938663 20.8343ZM0.712101 19.5892L1.03753 19.5735C1.00322 18.8602 1.01216 18.1362 1.02128 17.4038L0.695499 17.3997L0.369716 17.3957C0.360638 18.1246 0.351243 18.8685 0.386669 19.6049L0.712101 19.5892ZM0.695499 17.3997L1.02128 17.4038C1.02535 17.0796 1.02893 16.7544 1.02912 16.4302L0.703312 16.43L0.377503 16.4298C0.377312 16.7498 0.373785 17.0717 0.369716 17.3957L0.695499 17.3997ZM0.703312 16.43L1.02912 16.4303L1.034 10.2623L0.708194 10.2621L0.382386 10.2618L0.377503 16.4298L0.703312 16.43ZM0.708194 10.2621L1.034 10.2617L1.02912 5.59472L0.703312 5.59506L0.377503 5.5954L0.382386 10.2624L0.708194 10.2621ZM0.703312 5.59506L1.02912 5.59486C1.02899 5.38382 1.02021 5.15572 1.01129 4.92801L0.685734 4.94076L0.360175 4.95352C0.369189 5.1836 0.377381 5.39897 0.377503 5.59526L0.703312 5.59506ZM0.685734 4.94076L1.01129 4.92807C0.986535 4.29311 0.964733 3.67021 1.08542 3.19707L0.769718 3.11654L0.454018 3.03602C0.305003 3.62022 0.336583 4.3485 0.360172 4.95346L0.685734 4.94076ZM0.769718 3.11654L1.0854 3.19716C1.12715 3.03365 1.2014 2.96307 1.43033 2.81698L1.25507 2.54233L1.0798 2.26767C0.822592 2.43181 0.560605 2.61863 0.45404 3.03593L0.769718 3.11654ZM1.25507 2.54233L1.27615 2.86745C3.89763 2.69751 6.75638 3.24375 9.04589 4.51747L9.20429 4.23275L9.36268 3.94804C6.95017 2.60589 3.96391 2.04023 1.23399 2.2172L1.25507 2.54233ZM9.20429 4.23275L9.0459 4.51747C9.80376 4.93908 10.4904 5.45621 11.2041 5.99561L11.4006 5.73568L11.597 5.47576C10.8886 4.94039 10.1667 4.3953 9.36268 3.94804L9.20429 4.23275ZM11.4006 5.73568L11.5953 5.99686C11.9947 5.69902 12.3928 5.4048 12.7983 5.12773L12.6144 4.85873L12.4306 4.58973C12.013 4.8751 11.6055 5.17646 11.2058 5.4745L11.4006 5.73568ZM12.6144 4.85873L12.7983 5.12773C14.953 3.65536 17.5258 2.92344 20.1411 2.85827L20.133 2.53256L20.1249 2.20685C17.401 2.27473 14.7023 3.03741 12.4306 4.58973L12.6144 4.85873ZM20.133 2.53256L20.1411 2.85827C20.2558 2.8554 20.3768 2.84841 20.4921 2.84228L20.4748 2.51693L20.4575 2.19158C20.337 2.19799 20.228 2.20428 20.1249 2.20685L20.133 2.53256ZM20.1672 4.61264L20.1645 4.28684C19.8722 4.28925 19.4835 4.26797 19.136 4.31407L19.1789 4.63705L19.2218 4.96003C19.5161 4.92097 19.8139 4.94137 20.1699 4.93843L20.1672 4.61264ZM19.1789 4.63705L19.1496 4.31257C18.0271 4.41405 16.7437 4.6702 15.546 5.12707C14.3509 5.58297 13.2194 6.24702 12.4261 7.17764L12.674 7.389L12.922 7.60037C13.6199 6.78166 14.6428 6.16901 15.7783 5.7359C16.9111 5.30376 18.1346 5.0586 19.2082 4.96154L19.1789 4.63705ZM12.674 7.389L12.4251 7.17874C12.3577 7.25854 12.2931 7.34005 12.2309 7.42279L12.4914 7.6185L12.7519 7.8142C12.8072 7.74057 12.8641 7.66883 12.9229 7.59927L12.674 7.389ZM12.4914 7.6185L12.1656 7.6184L12.1617 21.3528L12.4875 21.3529L12.8133 21.353L12.8172 7.61859L12.4914 7.6185ZM12.4875 21.3529L12.6791 21.6164C12.9299 21.4341 13.1626 21.2578 13.4067 21.0882L13.2209 20.8206L13.035 20.553C12.7838 20.7275 12.5328 20.9172 12.2959 21.0893L12.4875 21.3529ZM13.2209 20.8206L13.388 21.1004C15.3622 19.9211 17.8482 19.7102 20.2003 19.5411L20.1769 19.2162L20.1536 18.8912C17.8292 19.0583 15.1828 19.2693 13.0538 20.5409L13.2209 20.8206ZM20.1769 19.2162L20.5028 19.2162C20.5029 14.3573 20.5683 9.47479 20.4929 4.60759L20.1672 4.61264L19.8414 4.61768C19.9167 9.47859 19.8513 14.3451 19.8511 19.2161L20.1769 19.2162ZM2.66718 4.61557L2.34147 4.6075C2.291 6.64536 2.30146 8.68998 2.31208 10.7257L2.63788 10.724L2.96369 10.7223C2.95306 8.68501 2.9427 6.65012 2.99289 4.62363L2.66718 4.61557ZM2.63788 10.724L2.31208 10.7257C2.31647 11.5609 2.32074 12.3951 2.32086 13.2279L2.64667 13.2279L2.97248 13.2278C2.97235 12.3931 2.96808 11.5573 2.96369 10.7223L2.63788 10.724ZM2.64667 13.2279L2.32086 13.2279C2.32099 13.838 2.31309 14.4528 2.30526 15.0714L2.63105 15.0755L2.95683 15.0797C2.96465 14.4619 2.97261 13.8428 2.97248 13.2278L2.64667 13.2279ZM2.63105 15.0755H2.30524V15.0804H2.63105H2.95685V15.0755H2.63105ZM2.63105 15.0804L2.30526 15.0763C2.28804 16.4426 2.27114 17.8282 2.33983 19.1925L2.66523 19.1761L2.99062 19.1597C2.92314 17.8193 2.93956 16.4542 2.95683 15.0845L2.63105 15.0804ZM2.66523 19.1761L2.63728 19.5007C5.35194 19.7344 7.97223 20.0004 10.1385 21.5901L10.3312 21.3275L10.524 21.0648C8.18867 19.351 5.38266 19.083 2.69317 18.8515L2.66523 19.1761ZM10.3312 21.3275L10.657 21.3265C10.6438 16.7705 10.6694 12.2146 10.7332 7.65919L10.4074 7.65463L10.0816 7.65007C10.0178 12.2091 9.99213 16.7687 10.0054 21.3284L10.3312 21.3275ZM10.4074 7.65463L10.644 7.43058C8.80829 5.49251 5.9535 4.35983 3.32477 4.28598L3.31562 4.61166L3.30647 4.93734C5.78417 5.00695 8.46791 6.08072 10.1709 7.87868L10.4074 7.65463ZM3.31562 4.61166L3.32259 4.28593C3.10034 4.28117 2.87811 4.28271 2.65657 4.28993L2.66718 4.61557L2.67779 4.9412C2.8882 4.93434 3.09868 4.9329 3.30864 4.93739L3.31562 4.61166Z" fill="#010101"/>
        <path d="M30.48 4.01681C33.09 3.97145 37.4866 3.89487 38.9341 4.44943C40.0395 4.87308 40.9801 5.70658 41.4615 6.7961C41.9359 7.87012 41.9698 9.29064 41.5396 10.384C41.08 11.5517 40.2365 12.0453 39.146 12.5158C39.2301 12.5465 39.3157 12.5752 39.4009 12.6047C39.6346 12.6854 39.8694 12.7677 40.0894 12.8762C41.0964 13.382 41.8661 14.2611 42.233 15.3264C42.6762 16.6328 42.5063 18.0959 41.9068 19.3195C41.4594 20.0904 40.8316 20.6864 40.0552 21.1203C39.3723 21.5022 38.6971 21.6557 37.9263 21.758C36.7534 21.9137 29.9582 22.0154 29.105 21.7248C28.9902 21.6858 28.8754 21.6422 28.8228 21.5285C28.697 21.2561 28.6798 20.8382 28.6665 20.5168L28.6626 20.4279C28.5808 18.601 28.6071 16.7492 28.6333 14.9055C28.6451 14.0855 28.6576 13.2666 28.6597 12.4524C28.6617 11.6679 28.6514 10.8782 28.6412 10.0871C28.6212 8.54448 28.6009 6.99601 28.6714 5.46993C28.6868 5.13917 28.7143 4.76994 28.8335 4.45919C28.9247 4.22192 29.0417 4.13973 29.2652 4.03439C29.5926 4.03214 30.0071 4.02503 30.48 4.01681ZM37.0044 13.9338C36.053 13.707 33.0489 13.8639 31.9058 13.8645L31.9068 19.0774C33.2485 19.08 36.1712 19.2498 37.3208 18.9553C37.7456 18.8465 38.0827 18.6765 38.4058 18.3801C38.9231 17.7702 39.1912 17.1549 39.1138 16.3371C39.0449 15.6101 38.7334 14.9918 38.1675 14.5246C37.8297 14.242 37.4319 14.04 37.0044 13.9338ZM37.8091 7.24239C36.8929 6.53117 34.4893 6.6086 32.855 6.66134C32.4931 6.67301 32.1687 6.68339 31.9068 6.6838L31.9087 11.3244C32.2134 11.3253 32.5848 11.3355 32.9898 11.3459C34.3283 11.3802 36.0359 11.4235 36.9273 11.1955C37.3424 11.0892 37.6861 10.9206 38.0181 10.6506C38.4536 10.123 38.6911 9.52091 38.6353 8.82735C38.5862 8.21739 38.2957 7.62021 37.8091 7.24239Z" fill="#010101"/>
        <path d="M57.4061 14.3969C56.9044 10.6301 53.4433 7.98384 49.677 8.48735C45.9136 8.99052 43.2699 12.4482 43.7709 16.2116C44.272 19.9754 47.7282 22.6209 51.4921 22.1224C55.259 21.6226 57.9072 18.1632 57.4061 14.3969ZM50.1174 11.4011C50.8818 11.363 51.5561 11.3761 52.2341 11.7892C52.9951 12.253 53.4684 13.0454 53.6744 13.8966C53.9666 15.1032 53.8982 16.7648 53.2195 17.8381C52.7332 18.607 52.0556 18.9471 51.1978 19.1361C50.3747 19.2188 49.5578 19.1413 48.8525 18.6682C48.1087 18.1691 47.6757 17.3545 47.5073 16.4918C47.2683 15.2668 47.3434 13.6749 48.0835 12.626C48.5915 11.9062 49.2686 11.5513 50.1174 11.4011Z" fill="#010101"/>
        <path d="M72.1663 14.3551C71.6463 10.5893 68.1667 7.96209 64.4023 8.49283C60.6529 9.02149 58.0386 12.4841 58.5566 16.235C59.0747 19.9851 62.5302 22.6098 66.2822 22.1022C70.0492 21.5926 72.6863 18.1208 72.1663 14.3551ZM64.8239 11.4018C65.5674 11.3407 66.2868 11.3637 66.9553 11.7383C67.7489 12.1829 68.2338 12.9634 68.4599 13.8251C68.7844 15.0634 68.7205 16.6605 68.0422 17.7767C67.5619 18.5678 66.8771 18.936 66.0014 19.1327C65.1816 19.239 64.3736 19.1477 63.6685 18.6844C62.9159 18.1899 62.4793 17.3845 62.2962 16.5198C62.0382 15.298 62.1216 13.7241 62.8345 12.6621C63.3179 11.9413 63.9911 11.5734 64.8239 11.4018Z" fill="#010101"/>
        <path d="M74.9085 3.46087C74.96 3.45605 75.0114 3.45234 75.0629 3.45051C75.5738 3.43259 76.7115 3.33361 77.0582 3.80134C77.2061 4.00061 77.2276 4.41693 77.2458 4.66259C77.3234 5.70035 77.2608 6.78581 77.2608 7.82801L77.2621 13.9649C77.988 13.1021 78.8234 12.312 79.589 11.482C80.3449 10.6622 81.0715 9.71946 81.9088 8.98926C82.1082 8.81534 82.2594 8.7232 82.5174 8.65283C83.0524 8.50719 84.9903 8.39928 85.3982 8.68958C85.5025 8.76367 85.5911 8.90728 85.5833 9.03845C85.5468 9.6225 81.6879 13.4273 81.0154 14.0931C82.2528 15.8917 83.5007 17.6823 84.7596 19.4658C85.073 19.9206 85.9638 20.8968 85.8491 21.4604C85.8244 21.5829 85.7273 21.6904 85.6191 21.7497C85.0405 22.0684 82.8178 21.8586 82.1238 21.6324C81.6279 21.134 81.2239 20.4133 80.8252 19.834L78.4103 16.3133L77.2562 17.3161C77.2517 18.2395 77.528 20.9561 76.9344 21.5751C76.6685 21.8527 76.3212 21.8742 75.9595 21.8775C75.407 21.8833 74.3383 21.9752 73.9343 21.5803C73.8307 20.5169 73.8652 19.4404 73.8646 18.3731L73.8626 13.815L73.8633 7.56945C73.8633 6.45948 73.8235 5.33297 73.875 4.22464C73.8822 4.07555 73.8861 3.94685 73.9747 3.81933C74.1871 3.51196 74.5722 3.50655 74.9085 3.46087Z" fill="#010101"/>
        <path d="M98.3844 8.53254C99.1129 8.51671 100.563 8.35556 101.219 8.62709C101.465 8.72881 101.576 8.97962 101.686 9.20925C102.153 10.1819 102.458 11.3026 102.834 12.3183C103.487 14.0857 104.191 15.8337 104.854 17.597C105.239 16.602 107.899 9.18755 108.335 8.81769C108.548 8.63667 108.954 8.59777 109.22 8.58995C109.781 8.57353 110.829 8.44959 111.254 8.84154C111.361 9.09417 111.347 9.23231 111.285 9.50313C111.067 10.4488 110.604 11.4314 110.265 12.3431L108.082 18.2082L106.607 22.2065C106.311 23.0132 106.049 23.8766 105.665 24.6442C105.451 25.0717 105.19 25.4724 104.863 25.8224C104.079 26.6623 103.053 27.0233 101.924 27.0624C101.44 27.0793 100.61 27.1692 100.236 26.8232C99.9978 26.341 99.9776 25.2163 100.131 24.6964C100.281 24.1901 101.39 24.2865 101.837 24.035C102.556 23.6303 102.752 22.8334 102.938 22.0925C102.36 20.3455 98.0097 9.66264 98.0521 9.05853C98.0703 8.79619 98.1941 8.68372 98.3844 8.53254Z" fill="#010101"/>
        <path d="M91.2382 8.48089C91.6031 8.42524 92.0038 8.44042 92.3746 8.4442C93.8492 8.45893 95.4991 8.76975 96.5613 9.879C97.0493 10.389 97.4051 11.1594 97.3517 11.8778C97.3425 12.0003 97.3087 12.1761 97.2044 12.2498C96.6746 12.6242 95.2287 12.5508 94.5992 12.4661C94.0408 12.3909 94.0838 12.0175 93.7398 11.6088C93.3605 11.159 92.806 10.938 92.2287 10.8961C91.5862 10.8494 90.7736 11.0585 90.2953 11.5095C90.0842 11.7087 89.8613 12.2219 89.8959 12.5092C90.0444 13.7617 93.5736 13.9228 94.5895 14.1786C95.4509 14.3955 96.3378 14.718 97.0259 15.298C97.6788 15.8479 97.974 16.5973 98.0404 17.4353C98.1219 18.4681 97.8208 19.4572 97.1353 20.2392C95.9442 21.5978 94.2089 21.9972 92.4821 22.1237C91.1548 22.1686 89.7265 21.9868 88.5327 21.3737C87.6667 20.9286 86.8848 20.2333 86.5961 19.2741C86.4775 18.8825 86.3986 18.4238 86.6072 18.0524C87.2106 17.5793 88.8591 17.7643 89.5916 17.7911C89.8385 18.167 89.9897 18.6082 90.3272 18.9197C90.8961 19.4442 91.7354 19.6026 92.4867 19.5654C93.1012 19.5348 93.7554 19.3602 94.1672 18.8721C94.3946 18.603 94.5263 18.2576 94.4924 17.9025C94.3562 16.482 90.857 16.4872 89.774 16.237C88.9921 16.0571 88.1945 15.7398 87.5611 15.238C86.8939 14.7083 86.4677 13.9958 86.3869 13.1419C86.297 12.1 86.6182 11.0644 87.2822 10.2565C88.2851 9.04108 89.7271 8.62855 91.2382 8.48089Z" fill="#010101"/>
    </g>
    <defs>
        <clipPath id="clip0_11426_975">
            <rect width="110.667" height="28" fill="white" transform="translate(0.666992 0.583984)"/>
        </clipPath>
    </defs>
</svg>
