<svg aria-hidden="true" style="position: absolute; width: 0; height: 0; overflow: hidden;" version="1.1" xmlns="http://www.w3.org/2000/svg" xmlns:xlink="http://www.w3.org/1999/xlink">
<defs>
<symbol id="icon-Company-Logo" viewBox="0 0 75 32">
<path d="M1.755 16.717c-0.001 0.057-0.001 0.114-0.002 0.171 0.001-0.056 0.001-0.112 0.002-0.168v-0.003z"></path>
<path d="M13.65 8.345c0.244-0.013 0.506-0.026 0.727 0.023 0.124 0.028 0.206 0.073 0.277 0.182 0.046 0.249 0.086 0.495 0.096 0.748 0.020 0.537 0.015 1.078 0.010 1.618-0.002 0.245-0.005 0.489-0.005 0.733v4.649c0 0.153 0.004 0.41 0.010 0.723 0.019 1.095 0.050 2.876-0.049 3.269-0.071 0.281-0.214 0.411-0.458 0.555-0.218 0.028-0.445 0.033-0.67 0.038-0.118 0.003-0.236 0.005-0.351 0.011-1.086 0.055-2.232 0.166-3.229 0.627-0.267 0.123-0.535 0.269-0.77 0.447-0.12 0.091-0.255 0.219-0.398 0.354-0.357 0.338-0.77 0.728-1.159 0.75-0.449 0.025-0.874-0.359-1.267-0.713-0.187-0.169-0.366-0.33-0.537-0.438-0.414-0.261-0.882-0.463-1.347-0.615-0.766-0.251-1.578-0.379-2.382-0.426-0.121-0.007-0.246-0.007-0.372-0.006-0.233 0.001-0.469 0.001-0.689-0.048-0.192-0.043-0.316-0.14-0.46-0.268-0.105-0.251-0.138-0.56-0.151-0.83-0.023-0.483-0.017-0.973-0.011-1.46 0.003-0.216 0.005-0.432 0.005-0.646l0.003-4.112-0.003-3.111c-0-0.136-0.006-0.284-0.012-0.436-0.016-0.413-0.034-0.864 0.056-1.216 0.049-0.194 0.162-0.279 0.324-0.383 1.784-0.116 3.732 0.255 5.299 1.127 0.521 0.29 0.99 0.644 1.464 1.002 0.266-0.199 0.535-0.397 0.809-0.585 1.476-1.008 3.233-1.506 5.012-1.551 0.073-0.002 0.149-0.006 0.228-0.010zM13.445 9.742c-0.216 0.002-0.445-0.012-0.659 0.016-1.464 0.132-3.342 0.668-4.337 1.835-0.042 0.050-0.083 0.101-0.122 0.153l-0.003 9.156c0.163-0.118 0.324-0.24 0.489-0.355 1.368-0.817 3.079-0.958 4.637-1.070 0-3.243 0.044-6.493-0.006-9.736zM1.778 9.744c-0.034 1.355-0.027 2.715-0.020 4.072 0.003 0.557 0.006 1.113 0.006 1.669 0 0.408-0.005 0.82-0.010 1.232v0.003c-0.012 0.912-0.023 1.829 0.023 2.73 1.801 0.155 3.61 0.333 5.111 1.434-0.009-3.039 0.008-6.077 0.051-9.115-1.18-1.245-3.026-1.981-4.728-2.029-0.144-0.003-0.288-0.002-0.432 0.003z"></path>
<path d="M13.65 8.345v0zM14.376 8.367v0zM14.653 8.549l0.214-0.039-0.008-0.043-0.024-0.037-0.182 0.119zM14.749 9.297v0zM14.759 10.915v0zM14.753 16.297h-0.217v0l0.217-0zM14.763 17.020v0zM14.714 20.289v0zM14.256 20.843l0.027 0.215 0.044-0.006 0.039-0.023-0.11-0.187zM13.586 20.881v0zM13.235 20.892l-0.011-0.217h-0l0.011 0.217zM10.006 21.519v0zM9.236 21.966v0zM8.839 22.321v0zM7.68 23.071l0.012 0.217h0l-0.012-0.217zM6.413 22.358v0zM5.876 21.919v0zM4.529 21.304l0.068-0.206h-0l-0.067 0.206zM2.147 20.878l-0.013 0.217h0l0.013-0.217zM1.775 20.871h0zM1.085 20.824l-0.047 0.212 0 0 0.047-0.212zM0.626 20.556l-0.2 0.084 0.019 0.046 0.037 0.033 0.144-0.163zM0.475 19.726v0zM0.464 18.266v0zM0.469 17.62v0zM0.472 13.508l0.217 0v-0l-0.217 0zM0.469 10.397v0zM0.457 9.961v0zM0.513 8.744v0zM0.837 8.362l-0.014-0.217-0.056 0.004-0.047 0.030 0.117 0.183zM6.136 9.489v0zM7.6 10.49l-0.131 0.173 0.13 0.098 0.131-0.097-0.13-0.174zM8.41 9.906v0zM13.422 8.355v0zM13.445 9.742l0.217-0.003-0.003-0.216-0.216 0.002 0.002 0.217zM12.786 9.758l0.020 0.216 0.009-0.001-0.029-0.215zM8.449 11.593l-0.165-0.141-0.001 0.001 0.166 0.14zM8.328 11.746l-0.174-0.13-0.044 0.058v0.072l0.217 0zM8.325 20.902l-0.217-0-0 0.427 0.345-0.251-0.128-0.176zM8.814 20.547l-0.111-0.186-0.006 0.004-0.006 0.004 0.124 0.178zM13.451 19.477l0.016 0.217 0.202-0.014 0-0.202h-0.217zM1.778 9.744l-0.007-0.217-0.205 0.007-0.005 0.205 0.217 0.005zM1.759 13.816v0zM1.764 15.485v0zM1.754 16.717l-0.217-0.003v0.003h0.217zM1.754 16.72l0.217 0.003v-0.003h-0.217zM1.777 19.451l-0.217 0.011 0.010 0.189 0.189 0.016 0.019-0.216zM6.887 20.885l-0.128 0.175 0.347 0.255-0.001-0.43-0.217 0.001zM6.938 11.77l0.217 0.003 0.001-0.088-0.061-0.064-0.158 0.149zM2.21 9.741l0.006-0.217-0.001-0-0.005 0.217zM13.65 8.345l0.012 0.217c0.251-0.013 0.482-0.024 0.668 0.018l0.047-0.212 0.047-0.212c-0.255-0.057-0.549-0.040-0.785-0.028l0.012 0.217zM14.376 8.367l-0.047 0.212c0.048 0.011 0.073 0.022 0.089 0.032 0.015 0.009 0.032 0.024 0.053 0.056l0.364-0.237c-0.050-0.076-0.109-0.138-0.184-0.186-0.073-0.046-0.151-0.072-0.227-0.089l-0.047 0.212zM14.653 8.549l-0.214 0.039c0.045 0.248 0.084 0.481 0.092 0.717l0.434-0.016c-0.010-0.27-0.053-0.529-0.099-0.779l-0.214 0.039zM14.749 9.297l-0.217 0.008c0.020 0.531 0.015 1.067 0.010 1.608l0.434 0.004c0.005-0.539 0.010-1.085-0.010-1.628l-0.217 0.008zM14.759 10.915l-0.217-0.002c-0.002 0.244-0.005 0.49-0.005 0.735h0.434c0-0.242 0.003-0.486 0.005-0.731l-0.217-0.002zM14.753 11.648h-0.217v4.649h0.434v-4.649h-0.217zM14.753 16.297l-0.217 0c0 0.155 0.004 0.414 0.010 0.726l0.434-0.008c-0.005-0.314-0.010-0.569-0.010-0.719l-0.217 0zM14.763 17.020l-0.217 0.004c0.009 0.548 0.022 1.265 0.020 1.893-0.001 0.314-0.006 0.605-0.016 0.84-0.011 0.242-0.027 0.406-0.046 0.479l0.421 0.106c0.031-0.123 0.048-0.329 0.058-0.566 0.011-0.244 0.016-0.541 0.017-0.857 0.002-0.634-0.010-1.355-0.020-1.902l-0.217 0.004zM14.714 20.289l-0.211-0.053c-0.028 0.112-0.067 0.182-0.117 0.238-0.052 0.060-0.126 0.114-0.241 0.182l0.221 0.374c0.128-0.076 0.249-0.158 0.347-0.269 0.101-0.115 0.169-0.25 0.212-0.42l-0.211-0.053zM14.256 20.843l-0.027-0.215c-0.205 0.026-0.42 0.031-0.647 0.036l0.005 0.217 0.005 0.217c0.223-0.005 0.462-0.010 0.692-0.039l-0.027-0.215zM13.586 20.881l-0.005-0.217c-0.117 0.003-0.238 0.005-0.357 0.011l0.022 0.434c0.112-0.006 0.226-0.008 0.345-0.011l-0.005-0.217zM13.235 20.892l-0.011-0.217c-1.087 0.055-2.271 0.167-3.309 0.647l0.182 0.394c0.956-0.442 2.065-0.552 3.149-0.607l-0.011-0.217zM10.006 21.519l-0.091-0.197c-0.275 0.127-0.558 0.28-0.81 0.472l0.263 0.346c0.217-0.165 0.47-0.303 0.729-0.423l-0.091-0.197zM9.236 21.966l-0.132-0.173c-0.132 0.1-0.275 0.236-0.416 0.369l0.299 0.315c0.146-0.138 0.271-0.256 0.38-0.339l-0.132-0.173zM8.839 22.321l-0.149-0.158c-0.181 0.171-0.363 0.343-0.546 0.476-0.186 0.135-0.345 0.208-0.476 0.215l0.024 0.434c0.258-0.014 0.5-0.147 0.707-0.297 0.21-0.152 0.413-0.345 0.589-0.512l-0.149-0.158zM7.68 23.071l-0.012-0.217c-0.158 0.009-0.33-0.054-0.524-0.18s-0.386-0.298-0.585-0.477l-0.291 0.323c0.193 0.175 0.411 0.371 0.64 0.52s0.494 0.265 0.785 0.249l-0.012-0.217zM6.413 22.358l0.146-0.161c-0.183-0.165-0.377-0.341-0.567-0.461l-0.232 0.367c0.152 0.096 0.317 0.243 0.508 0.416l0.146-0.161zM5.876 21.919l0.116-0.184c-0.433-0.273-0.919-0.482-1.395-0.638l-0.135 0.413c0.452 0.148 0.903 0.343 1.299 0.592l0.116-0.184zM4.529 21.304l0.067-0.206c-0.788-0.258-1.619-0.388-2.437-0.437l-0.013 0.217-0.013 0.217c0.79 0.047 1.583 0.173 2.328 0.416l0.068-0.206zM2.147 20.878l0.013-0.217c-0.129-0.008-0.261-0.007-0.385-0.007l0.001 0.434c0.127-0 0.245-0.001 0.358 0.006l0.013-0.217zM1.775 20.871l-0.001-0.217c-0.238 0.001-0.449 0-0.642-0.042l-0.094 0.424c0.248 0.055 0.508 0.053 0.737 0.053l-0.001-0.217zM1.085 20.824l0.047-0.212c-0.135-0.030-0.223-0.095-0.363-0.218l-0.288 0.325c0.149 0.132 0.308 0.262 0.557 0.317l0.047-0.212zM0.626 20.556l0.2-0.084c-0.090-0.213-0.122-0.49-0.134-0.756l-0.434 0.021c0.013 0.274 0.047 0.616 0.168 0.904l0.2-0.084zM0.475 19.726l0.217-0.010c-0.023-0.476-0.017-0.958-0.011-1.446l-0.434-0.005c-0.006 0.486-0.012 0.982 0.011 1.473l0.217-0.010zM0.464 18.266l0.217 0.003c0.003-0.216 0.005-0.433 0.005-0.649l-0.434-0c-0 0.213-0.002 0.428-0.005 0.644l0.217 0.003zM0.469 17.62l0.217 0 0.003-4.112-0.434-0-0.003 4.112 0.217 0zM0.472 13.508l0.217-0-0.003-3.111-0.434 0 0.003 3.111 0.217-0zM0.469 10.397l0.217-0c-0-0.141-0.006-0.293-0.012-0.445l-0.434 0.017c0.006 0.153 0.011 0.297 0.012 0.428l0.217-0zM0.457 9.961l0.217-0.008c-0.016-0.423-0.031-0.839 0.049-1.154l-0.421-0.107c-0.099 0.389-0.078 0.875-0.063 1.278l0.217-0.008zM0.513 8.744l0.21 0.054c0.028-0.109 0.077-0.156 0.23-0.253l-0.234-0.366c-0.171 0.109-0.346 0.234-0.417 0.512l0.21 0.054zM0.837 8.362l0.014 0.217c1.748-0.113 3.654 0.251 5.18 1.1l0.211-0.38c-1.608-0.895-3.599-1.272-5.419-1.154l0.014 0.217zM6.136 9.489l-0.106 0.19c0.505 0.281 0.963 0.626 1.439 0.985l0.262-0.347c-0.472-0.357-0.954-0.72-1.49-1.019l-0.106 0.19zM7.6 10.49l0.13 0.174c0.266-0.199 0.532-0.395 0.802-0.579l-0.245-0.359c-0.278 0.19-0.55 0.391-0.817 0.59l0.13 0.174zM8.41 9.906l0.123 0.179c1.436-0.982 3.152-1.47 4.895-1.513l-0.011-0.434c-1.816 0.045-3.615 0.554-5.13 1.589l0.123 0.179zM13.422 8.355l0.005 0.217c0.076-0.002 0.157-0.007 0.234-0.011l-0.012-0.217-0.012-0.217c-0.080 0.004-0.153 0.008-0.222 0.010l0.005 0.217zM13.445 9.742l-0.002-0.217c-0.195 0.002-0.454-0.013-0.686 0.018l0.029 0.215 0.029 0.215c0.196-0.026 0.395-0.012 0.632-0.014l-0.002-0.217zM12.786 9.758l-0.020-0.216c-0.748 0.068-1.604 0.238-2.402 0.543-0.797 0.304-1.551 0.747-2.080 1.367l0.331 0.282c0.465-0.546 1.147-0.954 1.904-1.243 0.755-0.288 1.571-0.452 2.287-0.516l-0.020-0.216zM8.449 11.593l-0.166-0.14c-0.045 0.053-0.088 0.108-0.129 0.163l0.347 0.261c0.037-0.049 0.075-0.097 0.114-0.143l-0.166-0.14zM8.328 11.746l-0.217-0-0.003 9.156 0.434 0 0.003-9.156-0.217-0zM8.325 20.902l0.128 0.176c0.167-0.122 0.322-0.239 0.485-0.352l-0.248-0.357c-0.167 0.116-0.335 0.243-0.493 0.358l0.128 0.176zM8.814 20.547l0.111 0.187c1.316-0.786 2.973-0.927 4.542-1.040l-0.016-0.217-0.016-0.217c-1.55 0.111-3.314 0.252-4.733 1.1l0.111 0.186zM13.451 19.477h0.217c0-3.239 0.044-6.494-0.007-9.739l-0.434 0.007c0.050 3.241 0.007 6.485 0.006 9.732l0.217 0zM1.778 9.744l-0.217-0.005c-0.034 1.359-0.027 2.722-0.020 4.079l0.434-0.002c-0.007-1.358-0.014-2.715 0.019-4.066l-0.217-0.005zM1.759 13.816l-0.217 0.001c0.003 0.557 0.006 1.113 0.006 1.668l0.434-0c-0-0.556-0.003-1.114-0.006-1.67l-0.217 0.001zM1.764 15.485h-0.217c0 0.407-0.005 0.817-0.010 1.229l0.434 0.006c0.005-0.412 0.011-0.825 0.010-1.235l-0.217 0zM1.754 16.717h-0.217v0.003h0.434v-0.003h-0.217zM1.754 16.72l-0.217-0.003c-0.011 0.911-0.023 1.835 0.023 2.744l0.434-0.022c-0.045-0.894-0.034-1.804-0.023-2.717l-0.217-0.003zM1.777 19.451l-0.019 0.216c1.81 0.156 3.557 0.333 5.001 1.393l0.257-0.35c-1.557-1.143-3.428-1.321-5.221-1.476l-0.019 0.216zM6.887 20.885l0.217-0.001c-0.009-3.037 0.008-6.075 0.051-9.112l-0.434-0.006c-0.043 3.039-0.060 6.079-0.051 9.119l0.217-0.001zM6.938 11.77l0.158-0.149c-1.224-1.292-3.127-2.047-4.88-2.096l-0.006 0.217-0.006 0.217c1.652 0.046 3.441 0.762 4.576 1.961l0.158-0.149zM2.21 9.741l0.005-0.217c-0.148-0.003-0.296-0.002-0.444 0.003l0.007 0.217 0.007 0.217c0.14-0.005 0.281-0.006 0.421-0.003l0.005-0.217z"></path>
<path d="M20.32 9.345c1.74-0.030 4.671-0.081 5.636 0.288 0.737 0.282 1.364 0.838 1.685 1.564 0.316 0.716 0.339 1.663 0.052 2.392-0.306 0.778-0.869 1.108-1.596 1.421 0.056 0.020 0.113 0.040 0.17 0.059 0.156 0.054 0.312 0.109 0.459 0.181 0.671 0.337 1.184 0.923 1.429 1.633 0.295 0.871 0.182 1.846-0.217 2.662-0.298 0.514-0.717 0.911-1.234 1.201-0.455 0.255-0.905 0.357-1.419 0.425-0.782 0.104-5.312 0.172-5.881-0.022-0.077-0.026-0.153-0.055-0.188-0.131-0.084-0.182-0.095-0.46-0.104-0.674l-0.003-0.059c-0.055-1.218-0.037-2.452-0.020-3.682 0.008-0.547 0.016-1.093 0.018-1.635 0.001-0.523-0.006-1.049-0.012-1.577-0.013-1.028-0.027-2.061 0.020-3.078 0.010-0.22 0.029-0.467 0.108-0.674 0.061-0.158 0.139-0.213 0.288-0.283 0.218-0.002 0.495-0.006 0.81-0.012zM24.67 15.956c-0.634-0.151-2.637-0.047-3.399-0.046l0.001 3.475c0.894 0.002 2.843 0.115 3.609-0.081 0.283-0.073 0.508-0.186 0.723-0.383 0.345-0.407 0.524-0.817 0.472-1.362-0.046-0.485-0.254-0.897-0.631-1.208-0.225-0.188-0.49-0.323-0.775-0.394zM25.206 11.495c-0.611-0.474-2.213-0.423-3.303-0.387-0.241 0.008-0.458 0.015-0.632 0.015l0.001 3.094c0.203 0.001 0.451 0.007 0.721 0.014 0.892 0.023 2.031 0.052 2.625-0.1 0.277-0.071 0.506-0.183 0.727-0.363 0.29-0.352 0.449-0.753 0.411-1.215-0.033-0.407-0.226-0.805-0.551-1.057z"></path>
<path d="M38.271 16.265c-0.334-2.511-2.642-4.275-5.153-3.94-2.509 0.335-4.271 2.641-3.937 5.149s2.638 4.273 5.147 3.941c2.511-0.333 4.277-2.639 3.943-5.15zM33.412 14.267c0.51-0.025 0.959-0.017 1.411 0.259 0.507 0.309 0.823 0.837 0.96 1.405 0.195 0.804 0.149 1.912-0.303 2.628-0.324 0.513-0.776 0.739-1.348 0.865-0.549 0.055-1.093 0.003-1.564-0.312-0.496-0.333-0.785-0.876-0.897-1.451-0.159-0.817-0.109-1.878 0.384-2.577 0.339-0.48 0.79-0.716 1.356-0.817z"></path>
<path d="M48.111 16.237c-0.347-2.511-2.666-4.262-5.176-3.908-2.5 0.352-4.242 2.661-3.897 5.161s2.649 4.25 5.15 3.911c2.511-0.34 4.269-2.654 3.923-5.165zM43.216 14.268c0.496-0.041 0.975-0.025 1.421 0.224 0.529 0.296 0.852 0.817 1.003 1.391 0.216 0.826 0.174 1.89-0.278 2.634-0.32 0.527-0.777 0.773-1.361 0.904-0.547 0.071-1.085 0.010-1.555-0.299-0.502-0.33-0.793-0.867-0.915-1.443-0.172-0.815-0.116-1.864 0.359-2.572 0.322-0.481 0.771-0.726 1.326-0.84z"></path>
<path d="M49.939 8.974c0.034-0.003 0.069-0.006 0.103-0.007 0.341-0.012 1.099-0.078 1.33 0.234 0.099 0.133 0.113 0.41 0.125 0.574 0.052 0.692 0.010 1.415 0.010 2.11l0.001 4.091c0.484-0.575 1.041-1.102 1.551-1.655 0.504-0.547 0.988-1.175 1.547-1.662 0.133-0.116 0.234-0.177 0.406-0.224 0.357-0.097 1.649-0.169 1.921 0.025 0.070 0.049 0.129 0.145 0.123 0.233-0.024 0.389-2.597 2.926-3.045 3.37 0.825 1.199 1.657 2.393 2.496 3.582 0.209 0.303 0.803 0.954 0.726 1.33-0.016 0.082-0.081 0.153-0.153 0.193-0.386 0.212-1.868 0.073-2.33-0.078-0.331-0.332-0.6-0.813-0.866-1.199l-1.61-2.347-0.769 0.669c-0.003 0.616 0.181 2.427-0.215 2.839-0.177 0.185-0.409 0.199-0.65 0.202-0.368 0.004-1.081 0.065-1.35-0.198-0.069-0.709-0.046-1.427-0.046-2.138l-0.001-3.039 0-4.164c0-0.74-0.027-1.491 0.008-2.23 0.005-0.099 0.007-0.185 0.066-0.27 0.142-0.205 0.398-0.208 0.623-0.239z"></path>
<path d="M65.59 12.355c0.486-0.011 1.452-0.118 1.89 0.063 0.164 0.068 0.238 0.235 0.311 0.388 0.311 0.648 0.515 1.396 0.765 2.073 0.435 1.178 0.905 2.344 1.347 3.519 0.257-0.663 2.030-5.606 2.321-5.853 0.142-0.121 0.413-0.147 0.59-0.152 0.374-0.011 1.073-0.094 1.356 0.168 0.071 0.168 0.062 0.261 0.021 0.441-0.145 0.63-0.454 1.286-0.68 1.893l-1.455 3.91-0.983 2.666c-0.197 0.538-0.372 1.113-0.628 1.625-0.143 0.285-0.317 0.552-0.535 0.785-0.523 0.56-1.207 0.801-1.959 0.827-0.323 0.011-0.876 0.071-1.125-0.159-0.159-0.321-0.172-1.071-0.070-1.418 0.1-0.338 0.839-0.273 1.137-0.441 0.479-0.27 0.61-0.801 0.734-1.295-0.385-1.165-3.286-8.287-3.257-8.689 0.012-0.175 0.095-0.25 0.222-0.351z"></path>
<path d="M60.825 12.321c0.243-0.037 0.51-0.027 0.758-0.024 0.983 0.010 2.083 0.217 2.791 0.957 0.325 0.34 0.563 0.854 0.527 1.333-0.006 0.082-0.029 0.199-0.098 0.248-0.353 0.25-1.317 0.201-1.737 0.144-0.372-0.050-0.344-0.299-0.573-0.572-0.253-0.3-0.623-0.447-1.007-0.475-0.428-0.031-0.97 0.108-1.289 0.409-0.141 0.133-0.289 0.475-0.266 0.666 0.099 0.835 2.452 0.942 3.129 1.113 0.574 0.145 1.166 0.36 1.624 0.746 0.435 0.367 0.632 0.866 0.676 1.425 0.054 0.689-0.146 1.348-0.603 1.869-0.794 0.906-1.951 1.172-3.102 1.256-0.885 0.030-1.837-0.091-2.633-0.5-0.577-0.297-1.099-0.76-1.291-1.4-0.079-0.261-0.132-0.567 0.007-0.814 0.402-0.315 1.501-0.192 1.99-0.174 0.165 0.251 0.265 0.545 0.49 0.752 0.379 0.35 0.939 0.455 1.44 0.43 0.41-0.020 0.846-0.137 1.12-0.462 0.152-0.179 0.239-0.41 0.217-0.646-0.091-0.947-2.424-0.944-3.146-1.11-0.521-0.12-1.053-0.331-1.475-0.666-0.445-0.353-0.729-0.828-0.783-1.397-0.060-0.695 0.154-1.385 0.597-1.924 0.669-0.81 1.63-1.085 2.637-1.184z"></path>
</symbol>
</defs>
</svg>
