<svg aria-hidden="true" style="position: absolute; width: 0; height: 0; overflow: hidden;" version="1.1" xmlns="http://www.w3.org/2000/svg" xmlns:xlink="http://www.w3.org/1999/xlink">
<defs>
<symbol id="icon-Favicon" viewBox="0 0 32 32">
<path d="M0 0h32v32h-32v-32z"></path>
<path d="M24.42 6.017c0.34-0.018 0.707-0.036 1.014 0.030 0.173 0.037 0.287 0.1 0.386 0.247 0.064 0.338 0.12 0.672 0.133 1.016 0.028 0.728 0.021 1.462 0.014 2.194-0.003 0.332-0.006 0.664-0.006 0.995l-0.001 6.309c0 0.207 0.007 0.556 0.015 0.98 0.026 1.487 0.069 3.904-0.068 4.436-0.099 0.382-0.3 0.557-0.64 0.752-0.304 0.038-0.621 0.045-0.934 0.052-0.164 0.004-0.328 0.007-0.489 0.015-1.514 0.075-3.113 0.225-4.504 0.851-0.372 0.167-0.746 0.364-1.073 0.606-0.168 0.124-0.355 0.297-0.555 0.48-0.498 0.459-1.074 0.989-1.617 1.018-0.626 0.033-1.219-0.487-1.767-0.968-0.261-0.229-0.511-0.448-0.749-0.595-0.578-0.355-1.231-0.628-1.879-0.834-1.069-0.34-2.201-0.514-3.322-0.579-0.169-0.010-0.343-0.009-0.519-0.009-0.325 0.001-0.655 0.002-0.962-0.064-0.267-0.058-0.44-0.19-0.641-0.363-0.147-0.34-0.193-0.76-0.211-1.127-0.032-0.656-0.024-1.319-0.016-1.98 0.004-0.293 0.008-0.586 0.008-0.878l0.004-5.58-0.005-4.222c-0-0.184-0.007-0.385-0.016-0.592-0.022-0.561-0.047-1.172 0.078-1.65 0.069-0.263 0.225-0.379 0.451-0.52 2.488-0.157 5.206 0.346 7.392 1.529 0.726 0.393 1.381 0.874 2.042 1.36 0.372-0.27 0.746-0.539 1.129-0.794 2.058-1.368 4.509-2.044 6.991-2.104 0.101-0.002 0.208-0.008 0.317-0.014zM24.134 7.912c-0.301 0.002-0.621-0.016-0.919 0.022-2.042 0.18-4.661 0.906-6.048 2.488-0.059 0.068-0.116 0.137-0.171 0.208l-0.003 12.425c0.227-0.16 0.451-0.326 0.682-0.482 1.908-1.109 4.294-1.299 6.469-1.451 0-4.401 0.060-8.811-0.010-13.211zM7.861 7.915c-0.047 1.838-0.036 3.683-0.026 5.525 0.004 0.755 0.008 1.511 0.008 2.266 0 0.554-0.007 1.112-0.015 1.671v0.005c-0.016 1.238-0.032 2.482 0.031 3.705 2.513 0.21 5.036 0.452 7.129 1.946-0.012-4.123 0.011-8.246 0.070-12.369-1.645-1.69-4.22-2.688-6.594-2.753-0.201-0.004-0.403-0.002-0.604 0.004z"></path>
<path d="M24.42 6.017v0zM25.433 6.047v0zM25.819 6.294l0.15-0.028-0.006-0.031-0.017-0.026-0.127 0.085zM25.952 7.31v0zM25.966 9.504v0zM25.96 10.499v0zM25.959 16.808h-0.153v0l0.153-0zM25.973 17.788v0zM25.905 22.225v0zM25.265 22.977l0.019 0.151 0.031-0.004 0.027-0.015-0.076-0.133zM24.331 23.028v0zM23.842 23.043v0zM19.338 23.894v0zM18.264 24.5l0.091 0.123v-0l-0.091-0.123zM17.71 24.98v0zM16.093 25.999l0.008 0.152h0l-0.008-0.152zM14.326 25.031v0zM13.577 24.436v0zM11.698 23.602l0.046-0.145h-0l-0.046 0.145zM8.376 23.023l-0.009 0.152h0l0.009-0.152zM7.857 23.015v0zM6.895 22.95l-0.032 0.149h0l0.032-0.149zM6.255 22.587l-0.14 0.061 0.014 0.032 0.027 0.023 0.1-0.116zM6.044 21.46v0zM6.028 19.48v0zM6.036 18.602v0zM6.040 13.023l0.153 0v-0l-0.153 0zM6.035 8.801v0zM6.019 8.209v0zM6.097 6.559v0zM6.549 6.039l-0.010-0.152-0.038 0.002-0.033 0.020 0.081 0.13zM13.94 7.568v0zM15.982 8.929l-0.091 0.123 0.090 0.066 0.090-0.066-0.090-0.124zM17.111 8.135v0zM24.102 6.030l0.004 0.153h0l-0.004-0.153zM24.134 7.912l0.153-0.002-0.002-0.152-0.151 0.001 0.001 0.153zM23.215 7.935l0.013 0.152 0.006-0.001-0.020-0.151zM17.167 10.423l-0.115-0.101-0 0.001 0.115 0.1zM16.996 10.631l-0.121-0.093-0.032 0.041v0.052l0.153 0zM16.993 23.056l-0.153-0v0.295l0.241-0.17-0.088-0.125zM17.675 22.574l-0.077-0.132-0.009 0.006 0.085 0.127zM24.143 21.123l0.011 0.152 0.142-0.010v-0.142h-0.153zM7.861 7.915l-0.005-0.153-0.144 0.005-0.004 0.144 0.153 0.004zM7.835 13.44v0zM7.843 15.706v0zM7.828 17.377l-0.153-0.002v0.002h0.153zM7.828 17.382l0.153 0.002v-0.002h-0.153zM7.859 21.087l-0.153 0.008 0.007 0.133 0.133 0.011 0.013-0.152zM14.988 23.033l-0.089 0.124 0.242 0.173-0.001-0.298-0.153 0zM15.058 10.664l0.153 0.002 0.001-0.063-0.044-0.045-0.109 0.107zM8.465 7.911l0.004-0.153-0.001-0-0.003 0.153zM24.42 6.017l0.008 0.153c0.345-0.018 0.69-0.034 0.973 0.027l0.065-0.298c-0.331-0.072-0.72-0.051-1.054-0.034l0.008 0.153zM25.433 6.047l-0.032 0.149c0.076 0.017 0.13 0.037 0.173 0.063 0.041 0.026 0.080 0.062 0.119 0.12l0.254-0.17c-0.060-0.089-0.128-0.158-0.212-0.21-0.082-0.051-0.172-0.081-0.268-0.102l-0.032 0.149zM25.819 6.294l-0.15 0.028c0.063 0.337 0.118 0.662 0.13 0.993l0.305-0.012c-0.014-0.356-0.072-0.699-0.135-1.038l-0.15 0.028zM25.952 7.31l-0.153 0.006c0.028 0.724 0.021 1.454 0.014 2.187l0.305 0.003c0.007-0.732 0.014-1.469-0.014-2.202l-0.153 0.006zM25.966 9.504l-0.153-0.002c-0.003 0.332-0.006 0.665-0.006 0.997h0.305c0-0.33 0.003-0.662 0.006-0.994l-0.153-0.002zM25.96 10.499h-0.153l-0.001 6.309h0.305l0.001-6.309h-0.153zM25.959 16.808l-0.153 0c0 0.209 0.007 0.559 0.015 0.983l0.305-0.005c-0.008-0.426-0.014-0.773-0.015-0.978l-0.153 0zM25.973 17.788l-0.153 0.003c0.013 0.744 0.030 1.718 0.027 2.573-0.002 0.427-0.008 0.824-0.023 1.145-0.015 0.327-0.038 0.562-0.068 0.677l0.296 0.076c0.039-0.151 0.062-0.417 0.077-0.74 0.015-0.328 0.022-0.729 0.023-1.158 0.003-0.859-0.014-1.837-0.027-2.579l-0.153 0.003zM25.905 22.225l-0.148-0.038c-0.044 0.17-0.108 0.286-0.195 0.382-0.089 0.098-0.207 0.181-0.373 0.276l0.076 0.133 0.076 0.133c0.174-0.1 0.326-0.202 0.448-0.336 0.124-0.137 0.209-0.299 0.264-0.51l-0.148-0.038zM25.265 22.977l-0.019-0.152c-0.295 0.036-0.604 0.044-0.919 0.051l0.003 0.153 0.003 0.153c0.313-0.007 0.637-0.014 0.95-0.053l-0.019-0.151zM24.331 23.028l-0.003-0.153c-0.164 0.004-0.33 0.007-0.494 0.015l0.008 0.153 0.008 0.152c0.158-0.008 0.32-0.011 0.485-0.015l-0.003-0.153zM23.842 23.043l-0.008-0.153c-1.515 0.075-3.14 0.226-4.559 0.864l0.125 0.279c1.362-0.612 2.936-0.762 4.449-0.837l-0.008-0.152zM19.338 23.894l-0.063-0.139c-0.378 0.17-0.762 0.372-1.102 0.623l0.182 0.245c0.315-0.233 0.678-0.425 1.045-0.59l-0.063-0.139zM18.264 24.5l-0.091-0.123c-0.176 0.13-0.37 0.309-0.567 0.491l0.207 0.225c0.202-0.186 0.382-0.352 0.542-0.47l-0.091-0.123zM17.71 24.98l-0.104-0.112c-0.251 0.231-0.512 0.471-0.776 0.658-0.267 0.188-0.518 0.308-0.746 0.32l0.008 0.152 0.008 0.152c0.315-0.017 0.624-0.177 0.905-0.376 0.284-0.2 0.56-0.455 0.807-0.683l-0.103-0.112zM16.093 25.999l-0.008-0.152c-0.268 0.014-0.54-0.090-0.823-0.268s-0.559-0.42-0.835-0.662l-0.201 0.23c0.272 0.238 0.566 0.497 0.873 0.691s0.644 0.334 1.002 0.314l-0.008-0.152zM14.326 25.031l0.101-0.115c-0.258-0.226-0.518-0.456-0.77-0.61l-0.080 0.13-0.080 0.13c0.225 0.138 0.465 0.348 0.728 0.579l0.101-0.115zM13.577 24.436l0.080-0.13c-0.591-0.363-1.257-0.64-1.912-0.849l-0.046 0.145-0.046 0.146c0.64 0.204 1.281 0.472 1.845 0.819l0.080-0.13zM11.698 23.602l0.046-0.145c-1.084-0.345-2.229-0.521-3.36-0.586l-0.009 0.152-0.009 0.152c1.112 0.064 2.231 0.237 3.285 0.572l0.046-0.146zM8.376 23.023l0.009-0.152c-0.175-0.010-0.354-0.010-0.528-0.009l0 0.153 0 0.153c0.176-0.001 0.346-0.001 0.509 0.009l0.009-0.152zM7.857 23.015l-0-0.153c-0.328 0.001-0.641 0.001-0.929-0.061l-0.064 0.299c0.326 0.070 0.672 0.069 0.994 0.068l-0-0.153zM6.895 22.95l0.032-0.149c-0.228-0.049-0.376-0.159-0.573-0.33l-0.199 0.231c0.205 0.176 0.401 0.331 0.708 0.397l0.032-0.149zM6.255 22.587l0.14-0.061c-0.135-0.313-0.181-0.71-0.199-1.074l-0.305 0.015c0.018 0.369 0.065 0.813 0.223 1.18l0.14-0.061zM6.044 21.46l0.153-0.008c-0.032-0.65-0.024-1.308-0.015-1.97l-0.305-0.004c-0.008 0.66-0.017 1.328 0.016 1.989l0.153-0.008zM6.028 19.48l0.153 0.002c0.004-0.293 0.008-0.587 0.008-0.88l-0.305-0c-0 0.291-0.004 0.583-0.008 0.876l0.153 0.002zM6.036 18.602l0.153 0 0.004-5.58-0.305-0-0.004 5.58 0.153 0zM6.040 13.023l0.153-0-0.005-4.222-0.305 0 0.005 4.222 0.153-0zM6.035 8.801l0.153-0c-0-0.188-0.007-0.391-0.016-0.598l-0.305 0.012c0.008 0.207 0.015 0.405 0.016 0.586l0.153-0zM6.019 8.209l0.153-0.006c-0.023-0.568-0.045-1.154 0.073-1.606l-0.295-0.077c-0.133 0.505-0.105 1.142-0.083 1.695l0.153-0.006zM6.097 6.559l0.148 0.039c0.053-0.203 0.164-0.292 0.384-0.429l-0.161-0.26c-0.232 0.144-0.434 0.287-0.518 0.611l0.148 0.039zM6.549 6.039l0.010 0.152c2.463-0.155 5.152 0.343 7.309 1.511l0.145-0.269c-2.215-1.199-4.961-1.706-7.474-1.547l0.010 0.152zM13.94 7.568l-0.073 0.134c0.715 0.387 1.362 0.862 2.024 1.349l0.181-0.246c-0.66-0.485-1.323-0.973-2.060-1.372l-0.073 0.134zM15.982 8.929l0.090 0.124c0.372-0.27 0.744-0.538 1.124-0.79l-0.169-0.254c-0.386 0.256-0.762 0.528-1.134 0.797l0.090 0.124zM17.111 8.135l0.085 0.127c2.031-1.35 4.453-2.019 6.91-2.079l-0.007-0.305c-2.507 0.061-4.987 0.744-7.072 2.13l0.084 0.127zM24.102 6.030l0.004 0.153c0.104-0.003 0.212-0.008 0.322-0.014l-0.016-0.305c-0.11 0.006-0.215 0.011-0.313 0.013l0.004 0.153zM24.134 7.912l-0.001-0.153c-0.287 0.002-0.627-0.016-0.937 0.024l0.020 0.151 0.020 0.151c0.286-0.037 0.585-0.019 0.901-0.021l-0.001-0.153zM23.215 7.935l-0.013-0.152c-1.032 0.091-2.211 0.32-3.309 0.727-1.097 0.407-2.124 0.996-2.84 1.813l0.23 0.201c0.671-0.765 1.647-1.331 2.716-1.728 1.069-0.396 2.22-0.62 3.23-0.709l-0.013-0.152zM17.167 10.423l-0.115-0.1c-0.060 0.070-0.12 0.141-0.177 0.215l0.242 0.187c0.053-0.068 0.108-0.135 0.165-0.201l-0.115-0.1zM16.996 10.631l-0.153-0-0.003 12.425 0.305 0 0.003-12.425h-0.153zM16.993 23.056l0.088 0.125c0.23-0.163 0.45-0.325 0.679-0.48l-0.171-0.253c-0.232 0.157-0.461 0.325-0.684 0.483l0.088 0.125zM17.675 22.574l0.077 0.132c1.872-1.088 4.222-1.278 6.403-1.431l-0.011-0.152-0.011-0.152c-2.168 0.152-4.591 0.342-6.535 1.471l0.077 0.132zM24.143 21.123h0.153c0-4.398 0.060-8.812-0.010-13.213l-0.305 0.005c0.070 4.399 0.010 8.805 0.010 13.208h0.153zM7.861 7.915l-0.153-0.004c-0.047 1.841-0.036 3.688-0.026 5.53l0.305-0.002c-0.010-1.842-0.020-3.685 0.026-5.521l-0.153-0.004zM7.835 13.44l-0.153 0.001c0.004 0.755 0.008 1.511 0.008 2.265l0.305-0c-0-0.755-0.004-1.511-0.008-2.266l-0.153 0.001zM7.843 15.706h-0.153c0 0.553-0.007 1.11-0.015 1.669l0.305 0.004c0.007-0.559 0.015-1.118 0.015-1.673l-0.153 0zM7.828 17.377h-0.153v0.005h0.305v-0.005h-0.153zM7.828 17.382l-0.153-0.002c-0.016 1.237-0.032 2.486 0.031 3.715l0.305-0.016c-0.063-1.218-0.047-2.457-0.031-3.695l-0.153-0.002zM7.859 21.087l-0.013 0.152c2.519 0.211 4.999 0.452 7.053 1.918l0.178-0.249c-2.132-1.522-4.698-1.764-7.205-1.974l-0.013 0.152zM14.988 23.033l0.153-0c-0.012-4.122 0.011-8.245 0.070-12.366l-0.305-0.004c-0.059 4.123-0.083 8.248-0.070 12.372l0.153-0zM15.058 10.664l0.109-0.107c-1.677-1.722-4.291-2.733-6.699-2.799l-0.004 0.153-0.004 0.153c2.34 0.064 4.875 1.049 6.489 2.707l0.109-0.107zM8.465 7.911l0.003-0.153c-0.204-0.004-0.408-0.003-0.612 0.004l0.005 0.153 0.005 0.153c0.198-0.006 0.398-0.008 0.596-0.004l0.003-0.153z"></path>
</symbol>
</defs>
</svg>

